<mxfile host="app.diagrams.net" modified="2022-06-03T12:35:31.370Z" agent="5.0 (Windows NT 10.0; Win64; x64) AppleWebKit/537.36 (KHTML, like Gecko) Chrome/99.0.4844.84 Safari/537.36 OPR/85.0.4341.53" etag="4O3E3Pknqa67-hvS3t46" version="17.5.0" type="github">
  <diagram id="25EPY6-DcYNVYQALl1p4" name="Page-1">
    <mxGraphModel dx="1382" dy="764" grid="1" gridSize="10" guides="1" tooltips="1" connect="1" arrows="1" fold="1" page="1" pageScale="1" pageWidth="827" pageHeight="1169" math="0" shadow="0">
      <root>
        <mxCell id="0" />
        <mxCell id="1" parent="0" />
        <mxCell id="3AXC4sWKn-cdUsdfnEmr-5" style="edgeStyle=orthogonalEdgeStyle;rounded=0;orthogonalLoop=1;jettySize=auto;html=1;" parent="1" source="3AXC4sWKn-cdUsdfnEmr-1" target="3AXC4sWKn-cdUsdfnEmr-4" edge="1">
          <mxGeometry relative="1" as="geometry" />
        </mxCell>
        <mxCell id="3AXC4sWKn-cdUsdfnEmr-1" value="Creating representation of NN" style="rounded=0;whiteSpace=wrap;html=1;" parent="1" vertex="1">
          <mxGeometry x="350" y="270" width="80" height="70" as="geometry" />
        </mxCell>
        <mxCell id="3AXC4sWKn-cdUsdfnEmr-8" style="edgeStyle=orthogonalEdgeStyle;rounded=0;orthogonalLoop=1;jettySize=auto;html=1;" parent="1" source="3AXC4sWKn-cdUsdfnEmr-2" target="3AXC4sWKn-cdUsdfnEmr-1" edge="1">
          <mxGeometry relative="1" as="geometry" />
        </mxCell>
        <mxCell id="3AXC4sWKn-cdUsdfnEmr-2" value="Branch and bound" style="rounded=0;whiteSpace=wrap;html=1;fillColor=#dae8fc;strokeColor=#6c8ebf;" parent="1" vertex="1">
          <mxGeometry x="440" y="380" width="80" height="70" as="geometry" />
        </mxCell>
        <mxCell id="3AXC4sWKn-cdUsdfnEmr-19" style="edgeStyle=orthogonalEdgeStyle;rounded=0;orthogonalLoop=1;jettySize=auto;html=1;fontColor=#00FF00;exitX=0.5;exitY=0;exitDx=0;exitDy=0;" parent="1" source="3AXC4sWKn-cdUsdfnEmr-4" target="3AXC4sWKn-cdUsdfnEmr-20" edge="1">
          <mxGeometry relative="1" as="geometry">
            <mxPoint x="570" y="230" as="targetPoint" />
            <mxPoint x="610" y="425" as="sourcePoint" />
          </mxGeometry>
        </mxCell>
        <mxCell id="3AXC4sWKn-cdUsdfnEmr-6" style="edgeStyle=orthogonalEdgeStyle;rounded=0;orthogonalLoop=1;jettySize=auto;html=1;entryX=1;entryY=0.5;entryDx=0;entryDy=0;" parent="1" source="3AXC4sWKn-cdUsdfnEmr-4" target="3AXC4sWKn-cdUsdfnEmr-2" edge="1">
          <mxGeometry relative="1" as="geometry">
            <mxPoint x="570" y="390" as="targetPoint" />
            <Array as="points">
              <mxPoint x="570" y="415" />
            </Array>
          </mxGeometry>
        </mxCell>
        <mxCell id="3AXC4sWKn-cdUsdfnEmr-4" value="Solvers" style="rounded=0;whiteSpace=wrap;html=1;" parent="1" vertex="1">
          <mxGeometry x="530" y="270" width="80" height="70" as="geometry" />
        </mxCell>
        <mxCell id="3AXC4sWKn-cdUsdfnEmr-13" style="edgeStyle=orthogonalEdgeStyle;rounded=0;orthogonalLoop=1;jettySize=auto;html=1;fontColor=#000000;" parent="1" source="3AXC4sWKn-cdUsdfnEmr-12" target="3AXC4sWKn-cdUsdfnEmr-1" edge="1">
          <mxGeometry relative="1" as="geometry" />
        </mxCell>
        <mxCell id="3AXC4sWKn-cdUsdfnEmr-12" value="Neural network, &lt;br&gt;inputs,&amp;nbsp;&lt;span style=&quot;color: rgb(32 , 33 , 34) ; font-family: sans-serif ; font-size: 14px ; background-color: rgb(255 , 255 , 255)&quot;&gt;Îµ&lt;/span&gt;" style="text;html=1;align=center;verticalAlign=middle;resizable=0;points=[];autosize=1;strokeColor=none;fillColor=none;fontColor=#000000;fontStyle=1" parent="1" vertex="1">
          <mxGeometry x="335" y="210" width="110" height="30" as="geometry" />
        </mxCell>
        <mxCell id="3AXC4sWKn-cdUsdfnEmr-20" value="&lt;b&gt;&lt;font color=&quot;#000000&quot;&gt;Locally robust /&lt;br&gt;not locally robust&lt;br&gt;&lt;/font&gt;&lt;/b&gt;" style="text;html=1;align=center;verticalAlign=middle;resizable=0;points=[];autosize=1;strokeColor=none;fillColor=none;fontColor=#00FF00;" parent="1" vertex="1">
          <mxGeometry x="510" y="210" width="120" height="30" as="geometry" />
        </mxCell>
        <mxCell id="3AXC4sWKn-cdUsdfnEmr-29" value="Output equations,&lt;br&gt;bounds" style="text;html=1;align=center;verticalAlign=middle;resizable=0;points=[];autosize=1;strokeColor=none;fillColor=none;fontColor=#000000;" parent="1" vertex="1">
          <mxGeometry x="425" y="270" width="110" height="30" as="geometry" />
        </mxCell>
        <mxCell id="a_O9K0V-ZCJDpH_BI81--1" value="Smaller &lt;br&gt;subproblems" style="text;html=1;align=center;verticalAlign=middle;resizable=0;points=[];autosize=1;strokeColor=none;fillColor=none;" parent="1" vertex="1">
          <mxGeometry x="310" y="375" width="80" height="30" as="geometry" />
        </mxCell>
        <mxCell id="a_O9K0V-ZCJDpH_BI81--2" value="Undecided" style="text;html=1;align=center;verticalAlign=middle;resizable=0;points=[];autosize=1;strokeColor=none;fillColor=none;" parent="1" vertex="1">
          <mxGeometry x="570" y="380" width="70" height="20" as="geometry" />
        </mxCell>
      </root>
    </mxGraphModel>
  </diagram>
</mxfile>
